<svg xmlns="http://www.w3.org/2000/svg" fill="none" class="w-64 h-64" viewBox="0 0 200 200"><defs><linearGradient id="structGrad" x1="0" x2="0" y1="0" y2="200" gradientUnits="userSpaceOnUse"><stop offset="0%" stop-color="#475569"/><stop offset="100%" stop-color="#94a3b8"/></linearGradient><g id="spin-arrow-up"><line x1="0" x2="0" y1="10" y2="-10" stroke="currentColor" stroke-linecap="round" stroke-width="4"/><path stroke="currentColor" stroke-linecap="round" stroke-linejoin="round" stroke-width="4" d="M-5 -5 L0 -12 L5 -5"/></g><g id="spin-arrow-down"><line x1="0" x2="0" y1="-10" y2="10" stroke="currentColor" stroke-linecap="round" stroke-width="4"/><path stroke="currentColor" stroke-linecap="round" stroke-linejoin="round" stroke-width="4" d="M-5 5 L0 12 L5 5"/></g><style>@keyframes spinStationaryPulse{0%{filter:drop-shadow(0 0 2px rgba(255,255,255,.3));opacity:.7}50%{filter:drop-shadow(0 0 15px #fff);opacity:1}}@keyframes pulseGlow{0%{filter:drop-shadow(0 0 2px rgba(239,68,68,.5))}50%{filter:drop-shadow(0 0 8px rgba(239,68,68,.9))}}.wave-flow{stroke-dasharray:100 100;animation:energyFlow 3s linear infinite,pulseGlow 3s ease-in-out infinite}.spin-node{color:url(#structGrad);animation:spinStationaryPulse 3s ease-in-out infinite;transform-box:fill-box;transform-origin:center}.a1{animation-delay:0s}.a2{animation-delay:1s}</style></defs><rect width="80" height="80" x="60" y="60" stroke="url(#structGrad)" stroke-linecap="round" stroke-linejoin="round" stroke-width="6" rx="4"/><g><use x="60" y="60" class="spin-node a1" href="#spin-arrow-up"/><use x="140" y="60" class="spin-node a2" href="#spin-arrow-down"/><use x="140" y="140" class="spin-node a1" href="#spin-arrow-up"/><use x="60" y="140" class="spin-node a2" href="#spin-arrow-down"/></g><path fill="none" stroke="#E2E8F0" stroke-linecap="round" stroke-width="4" d="M20 100 Q60 100 70 80 T100 100 T130 120 T180 100"/><path fill="none" stroke="#EF4444" stroke-linecap="round" stroke-width="5" d="M20 100 Q60 100 70 80 T100 100 T130 120 T180 100" class="wave-flow"/></svg>